<?xml version="1.0" encoding="UTF-8"?>
<svg width="97px" height="30px" viewBox="0 0 97 30" version="1.1" xmlns="http://www.w3.org/2000/svg" xmlns:xlink="http://www.w3.org/1999/xlink">
    <!-- Generator: Sketch 46.2 (44496) - http://www.bohemiancoding.com/sketch -->
    <title>Logo</title>
    <desc>Created with Sketch.</desc>
    <defs></defs>
    <g id="Symbols" stroke="none" stroke-width="1" fill="none" fill-rule="evenodd">
        <g id="Artboard" transform="translate(-58.000000, -75.000000)">
            <g id="Logo" transform="translate(58.000000, 74.000000)">
                <g id="Element-1">
                    <g id="Group" transform="translate(0.000000, 1.000000)" fill-rule="nonzero">
                        <path d="M29.41,16.31 L26.76,16.31 C26.673119,17.0122247 26.5224975,17.7050833 26.31,18.38 C24.2267576,24.6644027 17.4473844,28.0742261 11.16,26 C10.9,25.92 10.65,25.82 10.4,25.73 L9.16,28.08 C9.56,28.25 9.96,28.4 10.37,28.53 C14.05232,29.7507876 18.0693328,29.4537227 21.5320193,27.7045499 C24.9947057,25.9553772 27.6175207,22.8983393 28.82,19.21 C29.1162939,18.2663039 29.3140161,17.2944488 29.41,16.31" id="Shape" fill="#C0606F"></path>
                        <path d="M3.19,10.93 C3.91619943,8.6691961 5.31089856,6.68174985 7.19,5.23 L5.81,2.94 C3.38758553,4.738679 1.59277773,7.25420883 0.68,10.13 C-1.19085053,16.1279873 0.974072611,22.6509248 6.06,26.34 L7.32,24 C3.34577947,20.9355429 1.69823937,15.7216569 3.19,10.93" id="Shape" fill="#184767"></path>
                        <path d="M19.22,0.71 C15.8312036,-0.37329706 12.1664217,-0.206554807 8.89,1.18 L10.25,3.47 C13.6592356,2.1498706 17.4792184,2.41606715 20.6724053,4.19628816 C23.8655922,5.97650918 26.1004608,9.08592896 26.77,12.68 L29.44,12.68 C28.5995819,7.06532786 24.6335233,2.42014957 19.22,0.71" id="Shape" fill="#A5C1C8"></path>
                    </g>
                    <path d="M37.43,30 C37.4268104,30.0300388 37.4373702,30.0599097 37.4587303,30.0812697 C37.4800903,30.1026298 37.5099612,30.1131896 37.54,30.11 L40.1,30.11 C41.2086921,30.2367088 42.2505203,29.5561597 42.58,28.49 L42.66,28.17 C42.6911076,28.034775 42.7144788,27.8978861 42.73,27.76 C42.73,27.6 42.73,27.4 42.73,27.17 C42.73,26.94 42.73,26.66 42.73,26.32 C42.73,25.98 42.73,25.7 42.73,25.47 C42.73,25.24 42.73,25.04 42.73,24.88 C42.7146546,24.7420891 42.6912816,24.6051901 42.66,24.47 L42.58,24.15 C42.2505203,23.0838403 41.2086921,22.4032912 40.1,22.53 L37.54,22.53 C37.5099612,22.5268104 37.4800903,22.5373702 37.4587303,22.5587303 C37.4373702,22.5800903 37.4268104,22.6099612 37.43,22.64 L37.43,30 Z M38.43,23.5 C38.4263646,23.4805446 38.4325576,23.4605479 38.4465528,23.4465528 C38.4605479,23.4325576 38.4805446,23.4263646 38.5,23.43 L39.9,23.43 C40.2844732,23.4133221 40.6667591,23.4959785 41.01,23.67 C41.3067536,23.8504106 41.5245742,24.136077 41.62,24.47 C41.62,24.54 41.62,24.62 41.69,24.7 C41.7149776,24.8119546 41.7316893,24.9255944 41.74,25.04 C41.74,25.18 41.74,25.35 41.74,25.55 C41.74,25.75 41.74,26 41.74,26.3 C41.74,26.6 41.74,26.85 41.74,27.05 C41.74,27.25 41.74,27.42 41.74,27.56 C41.7316893,27.6744056 41.7149776,27.7880454 41.69,27.9 C41.69,27.99 41.69,28.07 41.62,28.13 C41.5385179,28.4914778 41.3150882,28.8050001 41,29 C40.6567591,29.1740215 40.2744732,29.2566779 39.89,29.24 L38.51,29.24 C38.4905446,29.2436354 38.4705479,29.2374424 38.4565528,29.2234472 C38.4425576,29.2094521 38.4363646,29.1894554 38.44,29.17 L38.43,23.5 Z M43.38,30 C43.38,30.07 43.38,30.11 43.46,30.11 L44.24,30.11 C44.3094433,30.1125038 44.3715149,30.0669846 44.39,30 L45,28.37 L48,28.37 L48.63,30 C48.6448945,30.0693842 48.7093474,30.1166496 48.78,30.11 L49.56,30.11 C49.63,30.11 49.66,30.11 49.64,30 L47,22.64 C46.9851055,22.5706158 46.9206526,22.5233504 46.85,22.53 L46.12,22.53 C46.0553395,22.5292309 45.9999439,22.576104 45.99,22.64 L43.38,30 Z M45.29,27.43 L46.5,24 L46.5,24 L47.7,27.46 L45.29,27.43 Z M50.85,30 C50.8468104,30.0300388 50.8573702,30.0599097 50.8787303,30.0812697 C50.9000903,30.1026298 50.9299612,30.1131896 50.96,30.11 L53.6,30.11 C54.2592958,30.151947 54.911876,29.9568823 55.44,29.56 C55.8765157,29.1615795 56.1144669,28.5904966 56.09,28 C56.0928896,27.5683965 55.9560783,27.1474389 55.7,26.8 C55.5969662,26.6607633 55.4720068,26.5391811 55.33,26.44 C55.2078956,26.3529095 55.0729351,26.2854292 54.93,26.24 L54.93,26.24 C55.2249126,26.12238 55.4787612,25.9206921 55.66,25.66 C55.8649733,25.3418967 55.9662903,24.968072 55.95,24.59 C55.9763296,24.0444092 55.7690295,23.51343 55.38,23.13 C54.897612,22.7351959 54.2814833,22.5417601 53.66,22.59 L51,22.59 C50.9699612,22.5868104 50.9400903,22.5973702 50.9187303,22.6187303 C50.8973702,22.6400903 50.8868104,22.6699612 50.89,22.7 L50.85,30 Z M51.92,25.79 C51.9005446,25.7936354 51.8805479,25.7874424 51.8665528,25.7734472 C51.8525576,25.7594521 51.8463646,25.7394554 51.85,25.72 L51.85,23.5 C51.8463646,23.4805446 51.8525576,23.4605479 51.8665528,23.4465528 C51.8805479,23.4325576 51.9005446,23.4263646 51.92,23.43 L53.64,23.43 C54.0024759,23.4007412 54.3618499,23.5157408 54.64,23.75 C54.8760644,23.9763668 55.0035341,24.29322 54.99,24.62 C55.0019344,24.9435718 54.8744913,25.2567177 54.64,25.48 C54.3618499,25.7142592 54.0024759,25.8292588 53.64,25.8 L51.92,25.79 Z M51.85,26.79 C51.8463646,26.7705446 51.8525576,26.7505479 51.8665528,26.7365528 C51.8805479,26.7225576 51.9005446,26.7163646 51.92,26.72 L53.69,26.72 C54.0543657,26.7025821 54.4117633,26.8240972 54.69,27.06 C55.165179,27.5736193 55.165179,28.3663807 54.69,28.88 C54.4117633,29.1159028 54.0543657,29.2374179 53.69,29.22 L51.92,29.22 C51.9005446,29.2236354 51.8805479,29.2174424 51.8665528,29.2034472 C51.8525576,29.1894521 51.8463646,29.1694554 51.85,29.15 L51.85,26.79 Z M57.35,30 C57.3468104,30.0300388 57.3573702,30.0599097 57.3787303,30.0812697 C57.4000903,30.1026298 57.4299612,30.1131896 57.46,30.11 L62,30.11 C62.0300388,30.1131896 62.0599097,30.1026298 62.0812697,30.0812697 C62.1026298,30.0599097 62.1131896,30.0300388 62.11,30 L62.11,29.29 C62.1131896,29.2599612 62.1026298,29.2300903 62.0812697,29.2087303 C62.0599097,29.1873702 62.0300388,29.1768104 62,29.18 L58.42,29.18 C58.4005446,29.1836354 58.3805479,29.1774424 58.3665528,29.1634472 C58.3525576,29.1494521 58.3463646,29.1294554 58.35,29.11 L58.35,26.82 C58.3463646,26.8005446 58.3525576,26.7805479 58.3665528,26.7665528 C58.3805479,26.7525576 58.4005446,26.7463646 58.42,26.75 L61.5,26.75 C61.5300388,26.7531896 61.5599097,26.7426298 61.5812697,26.7212697 C61.6026298,26.6999097 61.6131896,26.6700388 61.61,26.64 L61.61,25.93 C61.6131896,25.8999612 61.6026298,25.8700903 61.5812697,25.8487303 C61.5599097,25.8273702 61.5300388,25.8168104 61.5,25.82 L58.42,25.82 C58.4005446,25.8236354 58.3805479,25.8174424 58.3665528,25.8034472 C58.3525576,25.7894521 58.3463646,25.7694554 58.35,25.75 L58.35,23.52 C58.3463646,23.5005446 58.3525576,23.4805479 58.3665528,23.4665528 C58.3805479,23.4525576 58.4005446,23.4463646 58.42,23.45 L62,23.45 C62.0300388,23.4531896 62.0599097,23.4426298 62.0812697,23.4212697 C62.1026298,23.3999097 62.1131896,23.3700388 62.11,23.34 L62.11,22.64 C62.1131896,22.6099612 62.1026298,22.5800903 62.0812697,22.5587303 C62.0599097,22.5373702 62.0300388,22.5268104 62,22.53 L57.46,22.53 C57.4299612,22.5268104 57.4000903,22.5373702 57.3787303,22.5587303 C57.3573702,22.5800903 57.3468104,22.6099612 57.35,22.64 L57.35,30 Z M63.56,30 C63.5568104,30.0300388 63.5673702,30.0599097 63.5887303,30.0812697 C63.6100903,30.1026298 63.6399612,30.1131896 63.67,30.11 L68.26,30.11 C68.2900388,30.1131896 68.3199097,30.1026298 68.3412697,30.0812697 C68.3626298,30.0599097 68.3731896,30.0300388 68.37,30 L68.37,29.29 C68.3731896,29.2599612 68.3626298,29.2300903 68.3412697,29.2087303 C68.3199097,29.1873702 68.2900388,29.1768104 68.26,29.18 L64.64,29.18 C64.6205446,29.1836354 64.6005479,29.1774424 64.5865528,29.1634472 C64.5725576,29.1494521 64.5663646,29.1294554 64.57,29.11 L64.57,22.61 C64.5731896,22.5799612 64.5626298,22.5500903 64.5412697,22.5287303 C64.5199097,22.5073702 64.4900388,22.4968104 64.46,22.5 L63.68,22.5 C63.6499612,22.4968104 63.6200903,22.5073702 63.5987303,22.5287303 C63.5773702,22.5500903 63.5668104,22.5799612 63.57,22.61 L63.56,30 Z M72.92,30.06 C73.2386688,29.958595 73.5342798,29.7954992 73.79,29.58 C74.021421,29.3855729 74.2031174,29.1387401 74.32,28.86 C74.4324099,28.5868523 74.4934323,28.2953008 74.5,28 C74.5341856,27.4551064 74.3298084,26.9222657 73.94,26.54 C73.4599861,26.1530306 72.8745747,25.919563 72.26,25.87 L71.89,25.81 C71.4452528,25.7821034 71.0165361,25.6334355 70.65,25.38 C70.4159892,25.1852046 70.2834739,24.8944071 70.29,24.59 C70.2770638,24.2534672 70.4122967,23.9281771 70.66,23.7 C70.9606957,23.4551717 71.3431351,23.3336489 71.73,23.36 C72.0454324,23.3574829 72.3592882,23.40473 72.66,23.5 C72.9799177,23.6052266 73.2855761,23.7496586 73.57,23.93 C73.5907817,23.9520208 73.6197214,23.9645017 73.65,23.9645017 C73.6802786,23.9645017 73.7092183,23.9520208 73.73,23.93 L74.11,23.31 C74.1351806,23.2911146 74.15,23.2614757 74.15,23.23 C74.15,23.1985243 74.1351806,23.1688854 74.11,23.15 C73.8052128,22.9290374 73.467824,22.756969 73.11,22.64 C72.696358,22.5070576 72.2644804,22.4395767 71.83,22.44 C71.4902734,22.4397444 71.152687,22.4937582 70.83,22.6 C70.5288015,22.6749247 70.2462644,22.8110871 70,23 C69.7818252,23.1958451 69.6108763,23.4385926 69.5,23.71 C69.3819806,24.0020963 69.3241584,24.3150163 69.33,24.63 C69.33,25.83 70.0766667,26.53 71.57,26.73 L71.95,26.79 C72.2089237,26.817885 72.4638716,26.8749128 72.71,26.96 C72.8875922,27.0212706 73.0533367,27.1125992 73.2,27.23 C73.3156928,27.3261035 73.4051439,27.4499588 73.46,27.59 C73.5145465,27.7336846 73.5416815,27.8863193 73.54,28.04 C73.5349182,28.4309957 73.3315058,28.7926178 73,29 C72.6406212,29.2595527 72.2024988,29.3867495 71.76,29.36 C71.3434213,29.3642401 70.9307883,29.2789854 70.55,29.11 C70.2224315,28.9682464 69.9134634,28.7868956 69.63,28.57 C69.6111146,28.5448194 69.5814757,28.53 69.55,28.53 C69.5185243,28.53 69.4888854,28.5448194 69.47,28.57 L68.98,29.15 C68.9574055,29.1725162 68.9447054,29.2031018 68.9447054,29.235 C68.9447054,29.2668982 68.9574055,29.2974838 68.98,29.32 C69.1345025,29.4560502 69.30197,29.5766269 69.48,29.68 C69.6837873,29.7992146 69.8980047,29.899629 70.12,29.98 C70.3607439,30.0694016 70.6081822,30.1396206 70.86,30.19 C71.1233031,30.2434667 71.3913233,30.2702687 71.66,30.27 C72.0665084,30.277725 72.471633,30.2203323 72.86,30.1 L72.92,30.06 Z M78.29,30.15 C78.3200388,30.1531896 78.3499097,30.1426298 78.3712697,30.1212697 C78.3926298,30.0999097 78.4031896,30.0700388 78.4,30.04 L78.4,23.54 C78.3963646,23.5205446 78.4025576,23.5005479 78.4165528,23.4865528 C78.4305479,23.4725576 78.4505446,23.4663646 78.47,23.47 L80.55,23.47 C80.5800388,23.4731896 80.6099097,23.4626298 80.6312697,23.4412697 C80.6526298,23.4199097 80.6631896,23.3900388 80.66,23.36 L80.66,22.66 C80.6631896,22.6299612 80.6526298,22.6000903 80.6312697,22.5787303 C80.6099097,22.5573702 80.5800388,22.5468104 80.55,22.55 L75.25,22.55 C75.2199612,22.5468104 75.1900903,22.5573702 75.1687303,22.5787303 C75.1473702,22.6000903 75.1368104,22.6299612 75.14,22.66 L75.14,23.36 C75.1368104,23.3900388 75.1473702,23.4199097 75.1687303,23.4412697 C75.1900903,23.4626298 75.2199612,23.4731896 75.25,23.47 L77.33,23.47 C77.3494554,23.4663646 77.3694521,23.4725576 77.3834472,23.4865528 C77.3974424,23.5005479 77.4036354,23.5205446 77.4,23.54 L77.4,30 C77.3968104,30.0300388 77.4073702,30.0599097 77.4287303,30.0812697 C77.4500903,30.1026298 77.4799612,30.1131896 77.51,30.11 L78.29,30.15 Z M81.9,30 C81.8968104,30.0300388 81.9073702,30.0599097 81.9287303,30.0812697 C81.9500903,30.1026298 81.9799612,30.1131896 82.01,30.11 L86.6,30.11 C86.6300388,30.1131896 86.6599097,30.1026298 86.6812697,30.0812697 C86.7026298,30.0599097 86.7131896,30.0300388 86.71,30 L86.71,29.29 C86.7131896,29.2599612 86.7026298,29.2300903 86.6812697,29.2087303 C86.6599097,29.1873702 86.6300388,29.1768104 86.6,29.18 L83,29.18 C82.9805446,29.1836354 82.9605479,29.1774424 82.9465528,29.1634472 C82.9325576,29.1494521 82.9263646,29.1294554 82.93,29.11 L82.93,26.82 C82.9263646,26.8005446 82.9325576,26.7805479 82.9465528,26.7665528 C82.9605479,26.7525576 82.9805446,26.7463646 83,26.75 L86.08,26.75 C86.1100388,26.7531896 86.1399097,26.7426298 86.1612697,26.7212697 C86.1826298,26.6999097 86.1931896,26.6700388 86.19,26.64 L86.19,25.93 C86.1931896,25.8999612 86.1826298,25.8700903 86.1612697,25.8487303 C86.1399097,25.8273702 86.1100388,25.8168104 86.08,25.82 L83,25.82 C82.9805446,25.8236354 82.9605479,25.8174424 82.9465528,25.8034472 C82.9325576,25.7894521 82.9263646,25.7694554 82.93,25.75 L82.93,23.52 C82.9263646,23.5005446 82.9325576,23.4805479 82.9465528,23.4665528 C82.9605479,23.4525576 82.9805446,23.4463646 83,23.45 L86.6,23.45 C86.6300388,23.4531896 86.6599097,23.4426298 86.6812697,23.4212697 C86.7026298,23.3999097 86.7131896,23.3700388 86.71,23.34 L86.71,22.64 C86.7131896,22.6099612 86.7026298,22.5800903 86.6812697,22.5587303 C86.6599097,22.5373702 86.6300388,22.5268104 86.6,22.53 L82,22.53 C81.9699612,22.5268104 81.9400903,22.5373702 81.9187303,22.5587303 C81.8973702,22.5800903 81.8868104,22.6099612 81.89,22.64 L81.9,30 Z M88.2,30 C88.1968104,30.0300388 88.2073702,30.0599097 88.2287303,30.0812697 C88.2500903,30.1026298 88.2799612,30.1131896 88.31,30.11 L89.09,30.11 C89.1200388,30.1131896 89.1499097,30.1026298 89.1712697,30.0812697 C89.1926298,30.0599097 89.2031896,30.0300388 89.2,30 L89.2,22.64 C89.2031896,22.6099612 89.1926298,22.5800903 89.1712697,22.5587303 C89.1499097,22.5373702 89.1200388,22.5268104 89.09,22.53 L88.31,22.53 C88.2799612,22.5268104 88.2500903,22.5373702 88.2287303,22.5587303 C88.2073702,22.5800903 88.1968104,22.6099612 88.2,22.64 L88.2,30 Z M90.74,30 C90.7368104,30.0300388 90.7473702,30.0599097 90.7687303,30.0812697 C90.7900903,30.1026298 90.8199612,30.1131896 90.85,30.11 L91.55,30.11 C91.5800388,30.1131896 91.6099097,30.1026298 91.6312697,30.0812697 C91.6526298,30.0599097 91.6631896,30.0300388 91.66,30 L91.66,24.34 L91.66,24.34 L95.16,30 C95.1935967,30.0732498 95.2697477,30.1173372 95.35,30.11 L96.07,30.11 C96.1000388,30.1131896 96.1299097,30.1026298 96.1512697,30.0812697 C96.1726298,30.0599097 96.1831896,30.0300388 96.18,30 L96.18,22.64 C96.1831896,22.6099612 96.1726298,22.5800903 96.1512697,22.5587303 C96.1299097,22.5373702 96.1000388,22.5268104 96.07,22.53 L95.37,22.53 C95.3399612,22.5268104 95.3100903,22.5373702 95.2887303,22.5587303 C95.2673702,22.5800903 95.2568104,22.6099612 95.26,22.64 L95.26,28.35 L95.26,28.35 L91.81,22.64 C91.7742508,22.5687423 91.6995965,22.5255214 91.62,22.53 L90.9,22.53 C90.8699612,22.5268104 90.8400903,22.5373702 90.8187303,22.5587303 C90.7973702,22.5800903 90.7868104,22.6099612 90.79,22.64 L90.74,30 Z" id="Shape" fill="#3C3C3B" fill-rule="nonzero"></path>
                    <path d="M41.35,19.38 C41.6685657,19.2783555 41.9641321,19.1152844 42.22,18.9 C42.451421,18.7055729 42.6331174,18.4587401 42.75,18.18 C42.8664696,17.8874545 42.9242336,17.5748493 42.92,17.26 C42.9541856,16.7151064 42.7498084,16.1822657 42.36,15.8 C41.8799861,15.4130306 41.2945747,15.179563 40.68,15.13 L40.31,15.07 C39.8652528,15.0421034 39.4365361,14.8934355 39.07,14.64 C38.8359892,14.4452046 38.7034739,14.1544071 38.71,13.85 C38.6970638,13.5134672 38.8322967,13.1881771 39.08,12.96 C39.3806957,12.7151717 39.7631351,12.5936489 40.15,12.62 C40.4654324,12.6174829 40.7792882,12.66473 41.08,12.76 C41.3997294,12.865698 41.7053315,13.0101034 41.99,13.19 C42.0107817,13.2120208 42.0397214,13.2245017 42.07,13.2245017 C42.1002786,13.2245017 42.1292183,13.2120208 42.15,13.19 L42.53,12.57 C42.5551806,12.5511146 42.57,12.5214757 42.57,12.49 C42.57,12.4585243 42.5551806,12.4288854 42.53,12.41 C42.2252128,12.1890374 41.887824,12.016969 41.53,11.9 C41.116358,11.7670576 40.6844804,11.6995767 40.25,11.7 C39.9102463,11.6993997 39.5726053,11.7534223 39.25,11.86 C38.9622191,11.9556535 38.6968579,12.1087465 38.47,12.31 C38.2518252,12.5058451 38.0808763,12.7485926 37.97,13.02 C37.8519806,13.3120963 37.7941584,13.6250163 37.8,13.94 C37.8,15.14 38.5466667,15.84 40.04,16.04 L40.42,16.1 C40.6789237,16.127885 40.9338716,16.1849128 41.18,16.27 C41.3575119,16.3314513 41.5232268,16.4227636 41.67,16.54 C41.7856928,16.6361035 41.8751439,16.7599588 41.93,16.9 C41.9845465,17.0436846 42.0116815,17.1963193 42.01,17.35 C42.0211054,17.7154639 41.8577595,18.0644303 41.57,18.29 C41.2106212,18.5495527 40.7724988,18.6767495 40.33,18.65 C39.871583,18.6660808 39.4158573,18.5735651 39,18.38 C38.6724315,18.2382464 38.3634634,18.0568956 38.08,17.84 C38.0611146,17.8148194 38.0314757,17.8 38,17.8 C37.9685243,17.8 37.9388854,17.8148194 37.92,17.84 L37.43,18.42 C37.4074055,18.4425162 37.3947054,18.4731018 37.3947054,18.505 C37.3947054,18.5368982 37.4074055,18.5674838 37.43,18.59 C37.6041271,18.7474814 37.7953145,18.8850022 38,19 C38.2037873,19.1192146 38.4180047,19.219629 38.64,19.3 C38.8807439,19.3894016 39.1281822,19.4596206 39.38,19.51 C39.6433031,19.5634667 39.9113233,19.5902687 40.18,19.59 C40.58654,19.5982456 40.9917473,19.5408412 41.38,19.42 L41.35,19.38 Z M44.48,19.36 C44.4768104,19.3900388 44.4873702,19.4199097 44.5087303,19.4412697 C44.5300903,19.4626298 44.5599612,19.4731896 44.59,19.47 L45.37,19.47 C45.4000388,19.4731896 45.4299097,19.4626298 45.4512697,19.4412697 C45.4726298,19.4199097 45.4831896,19.3900388 45.48,19.36 L45.48,11.94 C45.4831896,11.9099612 45.4726298,11.8800903 45.4512697,11.8587303 C45.4299097,11.8373702 45.4000388,11.8268104 45.37,11.83 L44.59,11.83 C44.5599612,11.8268104 44.5300903,11.8373702 44.5087303,11.8587303 C44.4873702,11.8800903 44.4768104,11.9099612 44.48,11.94 L44.48,19.36 Z M47.1,19.36 C47.0968104,19.3900388 47.1073702,19.4199097 47.1287303,19.4412697 C47.1500903,19.4626298 47.1799612,19.4731896 47.21,19.47 L49.86,19.47 C50.5192958,19.511947 51.171876,19.3168823 51.7,18.92 C52.1496271,18.5061354 52.3853673,17.9094179 52.34,17.3 C52.3473468,16.8677174 52.2100831,16.4453678 51.95,16.1 C51.8472372,15.9605268 51.7222358,15.8389038 51.58,15.74 C51.4578956,15.6529095 51.3229351,15.5854292 51.18,15.54 L51.18,15.54 C51.4752129,15.4228986 51.7291984,15.2211019 51.91,14.96 C52.1149733,14.6418967 52.2162903,14.268072 52.2,13.89 C52.2263296,13.3444092 52.0190295,12.81343 51.63,12.43 C51.147612,12.0351959 50.5314833,11.8417601 49.91,11.89 L47.21,11.89 C47.1799612,11.8868104 47.1500903,11.8973702 47.1287303,11.9187303 C47.1073702,11.9400903 47.0968104,11.9699612 47.1,12 L47.1,19.36 Z M48.17,15.15 C48.1505446,15.1536354 48.1305479,15.1474424 48.1165528,15.1334472 C48.1025576,15.1194521 48.0963646,15.0994554 48.1,15.08 L48.1,12.8 C48.0963646,12.7805446 48.1025576,12.7605479 48.1165528,12.7465528 C48.1305479,12.7325576 48.1505446,12.7263646 48.17,12.73 L49.89,12.73 C50.2524759,12.7007412 50.6118499,12.8157408 50.89,13.05 C51.1260644,13.2763668 51.2535341,13.59322 51.24,13.92 C51.2532488,14.2438026 51.1255934,14.5574704 50.89,14.78 C50.6118499,15.0142592 50.2524759,15.1292588 49.89,15.1 L48.17,15.15 Z M48.1,16.15 C48.0963646,16.1305446 48.1025576,16.1105479 48.1165528,16.0965528 C48.1305479,16.0825576 48.1505446,16.0763646 48.17,16.08 L49.94,16.08 C50.3043657,16.0625821 50.6617633,16.1840972 50.94,16.42 C51.4104052,16.9354794 51.4104052,17.7245206 50.94,18.24 C50.6617633,18.4759028 50.3043657,18.5974179 49.94,18.58 L48.15,18.58 C48.1305446,18.5836354 48.1105479,18.5774424 48.0965528,18.5634472 C48.0825576,18.5494521 48.0763646,18.5294554 48.08,18.51 L48.1,16.15 Z M53.6,19.38 C53.5968104,19.4100388 53.6073702,19.4399097 53.6287303,19.4612697 C53.6500903,19.4826298 53.6799612,19.4931896 53.71,19.49 L58.3,19.49 C58.3300388,19.4931896 58.3599097,19.4826298 58.3812697,19.4612697 C58.4026298,19.4399097 58.4131896,19.4100388 58.41,19.38 L58.41,18.68 C58.4131896,18.6499612 58.4026298,18.6200903 58.3812697,18.5987303 C58.3599097,18.5773702 58.3300388,18.5668104 58.3,18.57 L54.65,18.57 C54.6305446,18.5736354 54.6105479,18.5674424 54.5965528,18.5534472 C54.5825576,18.5394521 54.5763646,18.5194554 54.58,18.5 L54.58,16.12 C54.5763646,16.1005446 54.5825576,16.0805479 54.5965528,16.0665528 C54.6105479,16.0525576 54.6305446,16.0463646 54.65,16.05 L57.73,16.05 C57.7600388,16.0531896 57.7899097,16.0426298 57.8112697,16.0212697 C57.8326298,15.9999097 57.8431896,15.9700388 57.84,15.94 L57.84,15.23 C57.8431896,15.1999612 57.8326298,15.1700903 57.8112697,15.1487303 C57.7899097,15.1273702 57.7600388,15.1168104 57.73,15.12 L54.65,15.12 C54.6305446,15.1236354 54.6105479,15.1174424 54.5965528,15.1034472 C54.5825576,15.0894521 54.5763646,15.0694554 54.58,15.05 L54.58,12.82 C54.5763646,12.8005446 54.5825576,12.7805479 54.5965528,12.7665528 C54.6105479,12.7525576 54.6305446,12.7463646 54.65,12.75 L58.28,12.75 C58.3100388,12.7531896 58.3399097,12.7426298 58.3612697,12.7212697 C58.3826298,12.6999097 58.3931896,12.6700388 58.39,12.64 L58.39,11.94 C58.3931896,11.9099612 58.3826298,11.8800903 58.3612697,11.8587303 C58.3399097,11.8373702 58.3100388,11.8268104 58.28,11.83 L53.69,11.83 C53.6599612,11.8268104 53.6300903,11.8373702 53.6087303,11.8587303 C53.5873702,11.8800903 53.5768104,11.9099612 53.58,11.94 L53.6,19.38 Z M62.45,19.49 C62.4800388,19.4931896 62.5099097,19.4826298 62.5312697,19.4612697 C62.5526298,19.4399097 62.5631896,19.4100388 62.56,19.38 L62.56,12.88 C62.5563646,12.8605446 62.5625576,12.8405479 62.5765528,12.8265528 C62.5905479,12.8125576 62.6105446,12.8063646 62.63,12.81 L64.71,12.81 C64.7400388,12.8131896 64.7699097,12.8026298 64.7912697,12.7812697 C64.8126298,12.7599097 64.8231896,12.7300388 64.82,12.7 L64.82,12 C64.8231896,11.9699612 64.8126298,11.9400903 64.7912697,11.9187303 C64.7699097,11.8973702 64.7400388,11.8868104 64.71,11.89 L59.41,11.89 C59.3799612,11.8868104 59.3500903,11.8973702 59.3287303,11.9187303 C59.3073702,11.9400903 59.2968104,11.9699612 59.3,12 L59.3,12.7 C59.2968104,12.7300388 59.3073702,12.7599097 59.3287303,12.7812697 C59.3500903,12.8026298 59.3799612,12.8131896 59.41,12.81 L61.49,12.81 C61.5094554,12.8063646 61.5294521,12.8125576 61.5434472,12.8265528 C61.5574424,12.8405479 61.5636354,12.8605446 61.56,12.88 L61.56,19.38 C61.5568104,19.4100388 61.5673702,19.4399097 61.5887303,19.4612697 C61.6100903,19.4826298 61.6399612,19.4931896 61.67,19.49 L62.45,19.49 Z M66,19.32 C65.9968104,19.3500388 66.0073702,19.3799097 66.0287303,19.4012697 C66.0500903,19.4226298 66.0799612,19.4331896 66.11,19.43 L66.89,19.43 C66.9200388,19.4331896 66.9499097,19.4226298 66.9712697,19.4012697 C66.9926298,19.3799097 67.0031896,19.3500388 67,19.32 L67,16.12 C66.9963646,16.1005446 67.0025576,16.0805479 67.0165528,16.0665528 C67.0305479,16.0525576 67.0505446,16.0463646 67.07,16.05 L70.36,16.05 C70.3794554,16.0463646 70.3994521,16.0525576 70.4134472,16.0665528 C70.4274424,16.0805479 70.4336354,16.1005446 70.43,16.12 L70.43,19.32 C70.4268104,19.3500388 70.4373702,19.3799097 70.4587303,19.4012697 C70.4800903,19.4226298 70.5099612,19.4331896 70.54,19.43 L71.32,19.43 C71.3500388,19.4331896 71.3799097,19.4226298 71.4012697,19.4012697 C71.4226298,19.3799097 71.4331896,19.3500388 71.43,19.32 L71.43,11.94 C71.4331896,11.9099612 71.4226298,11.8800903 71.4012697,11.8587303 C71.3799097,11.8373702 71.3500388,11.8268104 71.32,11.83 L70.54,11.83 C70.5099612,11.8268104 70.4800903,11.8373702 70.4587303,11.8587303 C70.4373702,11.8800903 70.4268104,11.9099612 70.43,11.94 L70.43,15.06 C70.4336354,15.0794554 70.4274424,15.0994521 70.4134472,15.1134472 C70.3994521,15.1274424 70.3794554,15.1336354 70.36,15.13 L67,15.13 C66.9805446,15.1336354 66.9605479,15.1274424 66.9465528,15.1134472 C66.9325576,15.0994521 66.9263646,15.0794554 66.93,15.06 L66.93,11.94 C66.9331896,11.9099612 66.9226298,11.8800903 66.9012697,11.8587303 C66.8799097,11.8373702 66.8500388,11.8268104 66.82,11.83 L66.04,11.83 C66.0099612,11.8268104 65.9800903,11.8373702 65.9587303,11.8587303 C65.9373702,11.8800903 65.9268104,11.9099612 65.93,11.94 L66,19.32 Z" id="Shape" fill="#3C3C3B" fill-rule="nonzero"></path>
                    <path d="M37.44,8.62 C37.44,8.69 37.44,8.73 37.52,8.73 L38.3,8.73 C38.3694433,8.73250379 38.4315149,8.68698462 38.45,8.62 L39,7 L42.08,7 L42.66,8.66 C42.6748945,8.72938418 42.7393474,8.7766496 42.81,8.77 L43.59,8.77 C43.66,8.77 43.69,8.77 43.67,8.66 L41.09,1.23 C41.0751055,1.16061582 41.0106526,1.1133504 40.94,1.12 L40.21,1.12 C40.1453395,1.11923086 40.0899439,1.16610404 40.08,1.23 L37.44,8.62 Z M39.35,6 L40.56,2.54 L40.56,2.54 L41.78,6 L39.35,6 Z M50.13,8.73 C50.1547521,8.74429062 50.1852479,8.74429062 50.21,8.73 C50.2302225,8.69973378 50.2302225,8.66026622 50.21,8.63 L48.58,5.39 C49.0181197,5.26001101 49.4034233,4.99380129 49.68,4.63 C49.9546089,4.24962108 50.095288,3.78889708 50.08,3.32 C50.0845181,3.01161306 50.026695,2.70549113 49.91,2.42 C49.7977551,2.15768082 49.630682,1.92241459 49.42,1.73 C49.2016051,1.53511312 48.9466714,1.38555201 48.67,1.29 C48.348786,1.17781273 48.0101822,1.12363614 47.67,1.13 L44.93,1.13 C44.8999612,1.12681036 44.8700903,1.13737025 44.8487303,1.15873029 C44.8273702,1.18009034 44.8168104,1.2099612 44.82,1.24 L44.82,8.62 C44.8168104,8.6500388 44.8273702,8.67990966 44.8487303,8.70126971 C44.8700903,8.72262975 44.8999612,8.73318964 44.93,8.73 L45.71,8.73 C45.7400388,8.73318964 45.7699097,8.72262975 45.7912697,8.70126971 C45.8126298,8.67990966 45.8231896,8.6500388 45.82,8.62 L45.82,5.62 C45.8163646,5.60054459 45.8225576,5.58054792 45.8365528,5.56655275 C45.8505479,5.55255758 45.8705446,5.54636456 45.89,5.55 L47.56,5.55 L49.08,8.66 C49.0984851,8.72698462 49.1605567,8.77250379 49.23,8.77 L50.13,8.73 Z M45.89,4.58 C45.8705446,4.58363544 45.8505479,4.57744242 45.8365528,4.56344725 C45.8225576,4.54945208 45.8163646,4.52945541 45.82,4.51 L45.82,2.12 C45.8163646,2.10054459 45.8225576,2.08054792 45.8365528,2.06655275 C45.8505479,2.05255758 45.8705446,2.04636456 45.89,2.05 L47.66,2.05 C48.0222602,2.03553573 48.3775005,2.15276502 48.66,2.38 C48.9140447,2.62053918 49.0493706,2.9606827 49.03,3.31 C49.0523812,3.66273228 48.916808,4.00716133 48.66,4.25 C48.3775005,4.47723498 48.0222602,4.59446427 47.66,4.58 L45.89,4.58 Z M51.63,8.58 C51.6268104,8.6100388 51.6373702,8.63990966 51.6587303,8.66126971 C51.6800903,8.68262975 51.7099612,8.69318964 51.74,8.69 L52.45,8.69 C52.4800388,8.69318964 52.5099097,8.68262975 52.5312697,8.66126971 C52.5526298,8.63990966 52.5631896,8.6100388 52.56,8.58 L52.56,2.94 L52.56,2.94 L56.02,8.62 C56.0557492,8.69125766 56.1304035,8.7344786 56.21,8.73 L57,8.73 C57.0300388,8.73318964 57.0599097,8.72262975 57.0812697,8.70126971 C57.1026298,8.67990966 57.1131896,8.6500388 57.11,8.62 L57.11,1.23 C57.1131896,1.1999612 57.1026298,1.17009034 57.0812697,1.14873029 C57.0599097,1.12737025 57.0300388,1.11681036 57,1.12 L56.3,1.12 C56.2699612,1.11681036 56.2400903,1.12737025 56.2187303,1.14873029 C56.1973702,1.17009034 56.1868104,1.1999612 56.19,1.23 L56.19,6.94 L56.19,6.94 L52.66,1.23 C52.6242508,1.15874234 52.5495965,1.1155214 52.47,1.12 L51.75,1.12 C51.7199612,1.11681036 51.6900903,1.12737025 51.6687303,1.14873029 C51.6473702,1.17009034 51.6368104,1.1999612 51.64,1.23 L51.63,8.58 Z M58.63,8.58 C58.6268104,8.6100388 58.6373702,8.63990966 58.6587303,8.66126971 C58.6800903,8.68262975 58.7099612,8.69318964 58.74,8.69 L63.33,8.69 C63.3600388,8.69318964 63.3899097,8.68262975 63.4112697,8.66126971 C63.4326298,8.63990966 63.4431896,8.6100388 63.44,8.58 L63.44,7.91 C63.4431896,7.8799612 63.4326298,7.85009034 63.4112697,7.82873029 C63.3899097,7.80737025 63.3600388,7.79681036 63.33,7.8 L59.69,7.8 C59.6705446,7.80363544 59.6505479,7.79744242 59.6365528,7.78344725 C59.6225576,7.76945208 59.6163646,7.74945541 59.62,7.73 L59.62,5.42 C59.6163646,5.40054459 59.6225576,5.38054792 59.6365528,5.36655275 C59.6505479,5.35255758 59.6705446,5.34636456 59.69,5.35 L62.77,5.35 C62.8000388,5.35318964 62.8299097,5.34262975 62.8512697,5.32126971 C62.8726298,5.29990966 62.8831896,5.2700388 62.88,5.24 L62.88,4.54 C62.8831896,4.5099612 62.8726298,4.48009034 62.8512697,4.45873029 C62.8299097,4.43737025 62.8000388,4.42681036 62.77,4.43 L59.69,4.43 C59.6705446,4.43363544 59.6505479,4.42744242 59.6365528,4.41344725 C59.6225576,4.39945208 59.6163646,4.37945541 59.62,4.36 L59.62,2.12 C59.6163646,2.10054459 59.6225576,2.08054792 59.6365528,2.06655275 C59.6505479,2.05255758 59.6705446,2.04636456 59.69,2.05 L63.32,2.05 C63.3500388,2.05318964 63.3799097,2.04262975 63.4012697,2.02126971 C63.4226298,1.99990966 63.4331896,1.9700388 63.43,1.94 L63.43,1.23 C63.4331896,1.1999612 63.4226298,1.17009034 63.4012697,1.14873029 C63.3799097,1.12737025 63.3500388,1.11681036 63.32,1.12 L58.73,1.12 C58.6999612,1.11681036 58.6700903,1.12737025 58.6487303,1.14873029 C58.6273702,1.17009034 58.6168104,1.1999612 58.62,1.23 L58.63,8.58 Z M65.72,8.37 C66.1924797,8.6759334 66.7474597,8.82951277 67.31,8.81 C67.8314817,8.82133195 68.3452249,8.68248246 68.79,8.41 C69.2341859,8.14373225 69.5838718,7.74509031 69.79,7.27 C69.8293768,7.22775267 69.8293768,7.16224733 69.79,7.12 L69,6.85 C68.9725397,6.82843934 68.9358228,6.82276134 68.9031326,6.83502017 C68.8704424,6.847279 68.8465124,6.87569959 68.84,6.91 C68.701224,7.19491865 68.4994701,7.44454642 68.25,7.64 C67.9600772,7.8490812 67.6068005,7.95153143 67.25,7.93 C66.8937471,7.9467615 66.5420121,7.84475836 66.25,7.64 C65.9823542,7.42555379 65.78405,7.13679514 65.68,6.81 C65.6551332,6.72452888 65.6351015,6.63772467 65.62,6.55 C65.614163,6.43340634 65.614163,6.31659366 65.62,6.2 C65.62,6.06 65.62,5.89 65.62,5.69 C65.62,5.49 65.62,5.23 65.62,4.93 C65.62,4.63 65.62,4.38 65.62,4.17 C65.62,3.96 65.62,3.79 65.62,3.66 C65.6136744,3.54341908 65.6136744,3.42658092 65.62,3.31 C65.62,3.22 65.62,3.13 65.68,3.05 C65.78405,2.72320486 65.9823542,2.43444621 66.25,2.22 C66.5420121,2.01524164 66.8937471,1.9132385 67.25,1.93 C67.6068005,1.90846857 67.9600772,2.0109188 68.25,2.22 C68.4994701,2.41545358 68.701224,2.66508135 68.84,2.95 C68.8491543,2.98256649 68.8741527,3.00829702 68.9064415,3.01838726 C68.9387302,3.0284775 68.9739314,3.02155934 69,3 L69.67,2.68 C69.7093768,2.63775267 69.7093768,2.57224733 69.67,2.53 C69.4638718,2.05490969 69.1141859,1.65626775 68.67,1.39 C67.7241747,0.826736178 66.5458253,0.826736178 65.6,1.39 C65.1416187,1.71937611 64.8098771,2.19581356 64.66,2.74 C64.66,2.85 64.59,2.97 64.56,3.08 C64.5317073,3.21532403 64.5116703,3.35224342 64.5,3.49 C64.5,3.65 64.5,3.84 64.5,4.07 C64.5,4.3 64.5,4.56 64.5,4.88 C64.5,5.2 64.5,5.46 64.5,5.69 C64.5,5.92 64.5,6.11 64.5,6.27 C64.5115458,6.40777092 64.5315839,6.5446979 64.56,6.68 C64.56,6.8 64.62,6.91 64.66,7.02 C64.8098771,7.56418644 65.1416187,8.04062389 65.6,8.37 L65.72,8.37 Z M70.98,8.58 C70.9768104,8.6100388 70.9873702,8.63990966 71.0087303,8.66126971 C71.0300903,8.68262975 71.0599612,8.69318964 71.09,8.69 L72,8.69 C72.0300388,8.69318964 72.0599097,8.68262975 72.0812697,8.66126971 C72.1026298,8.63990966 72.1131896,8.6100388 72.11,8.58 L72.11,6.52 L73.46,4.89 L75.59,8.64 C75.6182435,8.70258724 75.6813654,8.74203847 75.75,8.74 L76.64,8.74 C76.74,8.74 76.76,8.74 76.71,8.62 L74.1,4.12 L76.45,1.26 C76.45,1.26 76.45,1.19 76.45,1.17 C76.4283419,1.1574957 76.4016581,1.1574957 76.38,1.17 L75.46,1.17 C75.3866535,1.16961135 75.3184191,1.20751938 75.28,1.27 L72.06,5.27 L72.06,1.27 C72.0769603,1.24293961 72.0799755,1.20940602 72.0681148,1.17975409 C72.056254,1.15010216 72.0309439,1.12789872 72,1.12 L71.22,1.12 C71.1899612,1.11681036 71.1600903,1.12737025 71.1387303,1.14873029 C71.1173702,1.17009034 71.1068104,1.1999612 71.11,1.23 L70.98,8.58 Z M77.79,8.58 C77.7868104,8.6100388 77.7973702,8.63990966 77.8187303,8.66126971 C77.8400903,8.68262975 77.8699612,8.69318964 77.9,8.69 L82.49,8.69 C82.5200388,8.69318964 82.5499097,8.68262975 82.5712697,8.66126971 C82.5926298,8.63990966 82.6031896,8.6100388 82.6,8.58 L82.6,7.91 C82.6031896,7.8799612 82.5926298,7.85009034 82.5712697,7.82873029 C82.5499097,7.80737025 82.5200388,7.79681036 82.49,7.8 L79,7.8 C78.9805446,7.80363544 78.9605479,7.79744242 78.9465528,7.78344725 C78.9325576,7.76945208 78.9263646,7.74945541 78.93,7.73 L78.93,5.42 C78.9263646,5.40054459 78.9325576,5.38054792 78.9465528,5.36655275 C78.9605479,5.35255758 78.9805446,5.34636456 79,5.35 L82,5.35 C82.0300388,5.35318964 82.0599097,5.34262975 82.0812697,5.32126971 C82.1026298,5.29990966 82.1131896,5.2700388 82.11,5.24 L82.11,4.54 C82.1167019,4.50839505 82.1077217,4.47549936 82.0858906,4.45168359 C82.0640595,4.42786782 82.0320674,4.41606647 82,4.42 L79,4.42 C78.9805446,4.42363544 78.9605479,4.41744242 78.9465528,4.40344725 C78.9325576,4.38945208 78.9263646,4.36945541 78.93,4.35 L78.93,2.12 C78.9263646,2.10054459 78.9325576,2.08054792 78.9465528,2.06655275 C78.9605479,2.05255758 78.9805446,2.04636456 79,2.05 L82.63,2.05 C82.6773155,2.03567651 82.7070641,1.98892869 82.7,1.94 L82.7,1.23 C82.7031896,1.1999612 82.6926298,1.17009034 82.6712697,1.14873029 C82.6499097,1.12737025 82.6200388,1.11681036 82.59,1.12 L78,1.12 C77.9699612,1.11681036 77.9400903,1.12737025 77.9187303,1.14873029 C77.8973702,1.17009034 77.8868104,1.1999612 77.89,1.23 L77.79,8.58 Z" id="Shape" fill="#3C3C3B" fill-rule="nonzero"></path>
                </g>
            </g>
        </g>
    </g>
</svg>