<?xml version="1.0" encoding="UTF-8"?>
<svg width="43px" height="57px" viewBox="0 0 43 57" version="1.1" xmlns="http://www.w3.org/2000/svg" xmlns:xlink="http://www.w3.org/1999/xlink">
    <!-- Generator: Sketch 46.2 (44496) - http://www.bohemiancoding.com/sketch -->
    <title>Bell_icon</title>
    <desc>Created with Sketch.</desc>
    <defs></defs>
    <g id="Symbols" stroke="none" stroke-width="1" fill="none" fill-rule="evenodd">
        <g id="Artboard" transform="translate(-1091.000000, -60.000000)">
            <g id="Bell_icon" transform="translate(1092.000000, 60.000000)">
                <path d="M1.54301174,46.9642303 C8.11785033,48.5166185 14.7795241,48.9047156 21.5280331,48.1285215 C28.2765421,47.3523274 34.2716683,45.7207077 39.5134117,43.2336626 L39.5134117,39.0477804 C36.7355979,37.1094242 35.2391736,34.8004596 35.0241386,32.1208867 C34.7015861,28.1015273 33.7827451,23.9297881 33.7827451,23.9297881 C33.1695761,20.9451514 29.7506113,10.0020919 17.8335073,10.6170858 C5.91640324,11.2320797 2.22142121,22.5410333 3.00339419,27.1694556 C3.21994992,28.2419866 3.50098572,30.6592291 3.84650159,34.4211829 C4.10198868,38.8487133 3.13813322,41.6294166 0.954935209,42.7632926 C0.954935209,42.9448709 1.15096072,44.3451835 1.54301174,46.9642303 Z" id="Path-2" stroke="#4A4A4A" stroke-width="3"></path>
                <path d="M13.3706953,11.3525236 C13.1237245,8.00807598 14.2633794,6.25829357 16.78966,6.10317641 C19.3159407,5.94805924 20.7967013,7.52462749 21.2319418,10.8328812" id="Path-3" stroke="#4A4A4A" stroke-width="3"></path>
                <circle id="Oval-7" fill="#C1616F" cx="28.5" cy="11.5" r="11.5"></circle>
                <path d="M13.1120146,48.8274612 C15.1770515,53.3447931 18.2499688,55.442563 22.3307668,55.1207709 C26.4115647,54.7989788 28.7242544,52.0725282 29.2688357,46.941419" id="Path-4" stroke="#4A4A4A" stroke-width="3"></path>
                <path d="M27.178,8.844 L27.142,8.844 L25.198,10.176 C25.0659993,10.2600004 25,10.2240008 25,10.068 L25,7.836 C25,7.73999952 25.0419996,7.65600036 25.126,7.584 L27.178,6.108 C27.2620004,6.03599964 27.3699993,6 27.502,6 L29.518,6 C29.6380006,6 29.698,6.0599994 29.698,6.18 L29.698,18.06 C29.698,18.1800006 29.6380006,18.24 29.518,18.24 L27.358,18.24 C27.2379994,18.24 27.178,18.1800006 27.178,18.06 L27.178,8.844 Z" id="1" fill="#FFFFFF"></path>
            </g>
        </g>
    </g>
</svg>