<?xml version="1.0" encoding="UTF-8"?>
<svg width="58px" height="58px" viewBox="0 0 58 58" version="1.1" xmlns="http://www.w3.org/2000/svg" xmlns:xlink="http://www.w3.org/1999/xlink">
    <!-- Generator: Sketch 47.1 (45422) - http://www.bohemiancoding.com/sketch -->
    <title>de</title>
    <desc>Created with Sketch.</desc>
    <defs></defs>
    <g id="Symbols" stroke="none" stroke-width="1" fill="none" fill-rule="evenodd">
        <g id="Artboard" transform="translate(-1241.000000, -234.000000)">
            <g id="de" transform="translate(1241.000000, 234.000000)">
                <g id="Group-4" fill="#194767">
                    <g id="Group-9-Copy">
                        <circle id="Oval-2" cx="29" cy="29" r="29"></circle>
                    </g>
                </g>
                <path d="M27.012,36 L24.436,36 C24.268,36 24.156,35.888 24.156,35.72 L24.156,34.712 L24.128,34.712 C23.484,35.636 22.364,36.308 20.544,36.308 C18.248,36.308 16.568,35.216 15.868,33.06 C15.532,32.024 15.392,31.072 15.392,29.252 C15.392,27.432 15.532,26.48 15.868,25.444 C16.568,23.288 18.248,22.196 20.544,22.196 C22.364,22.196 23.484,22.868 24.128,23.792 L24.156,23.792 L24.156,17.24 C24.156,17.072 24.268,16.96 24.436,16.96 L27.012,16.96 C27.18,16.96 27.292,17.072 27.292,17.24 L27.292,35.72 C27.292,35.888 27.18,36 27.012,36 Z M21.356,33.508 C22.644,33.508 23.512,32.892 23.876,31.772 C24.072,31.156 24.156,30.484 24.156,29.252 C24.156,28.02 24.072,27.348 23.876,26.732 C23.512,25.612 22.644,24.996 21.356,24.996 C20.096,24.996 19.228,25.612 18.864,26.732 C18.668,27.348 18.584,28.02 18.584,29.252 C18.584,30.484 18.668,31.156 18.864,31.772 C19.228,32.892 20.096,33.508 21.356,33.508 Z M36.756,36.308 C33.9,36.308 31.884,34.908 31.128,32.556 C30.848,31.688 30.652,30.652 30.652,29.252 C30.652,27.852 30.82,26.788 31.1,25.92 C31.856,23.568 33.928,22.196 36.616,22.196 C39.388,22.196 41.404,23.624 42.16,25.92 C42.468,26.872 42.608,27.796 42.608,29.98 C42.608,30.148 42.496,30.26 42.3,30.26 L33.984,30.26 C33.872,30.26 33.816,30.316 33.816,30.428 C33.816,30.82 33.9,31.156 34.012,31.464 C34.46,32.78 35.524,33.508 37.036,33.508 C38.548,33.508 39.528,32.948 40.2,32.22 C40.34,32.08 40.48,32.052 40.62,32.164 L42.272,33.62 C42.412,33.732 42.412,33.872 42.3,34.012 C41.152,35.356 39.248,36.308 36.756,36.308 Z M39.444,27.74 C39.444,27.264 39.388,26.928 39.276,26.592 C38.912,25.5 37.904,24.856 36.644,24.856 C35.356,24.856 34.348,25.5 33.984,26.592 C33.872,26.928 33.816,27.264 33.816,27.74 C33.816,27.852 33.872,27.908 33.984,27.908 L39.276,27.908 C39.388,27.908 39.444,27.852 39.444,27.74 Z" fill="#FFFFFF"></path>
            </g>
        </g>
    </g>
</svg>