<?xml version="1.0" encoding="UTF-8"?>
<svg width="58px" height="58px" viewBox="0 0 58 58" version="1.1" xmlns="http://www.w3.org/2000/svg" xmlns:xlink="http://www.w3.org/1999/xlink">
    <!-- Generator: Sketch 47.1 (45422) - http://www.bohemiancoding.com/sketch -->
    <title>en</title>
    <desc>Created with Sketch.</desc>
    <defs></defs>
    <g id="Symbols" stroke="none" stroke-width="1" fill="none" fill-rule="evenodd">
        <g id="Artboard" transform="translate(-1286.000000, -303.000000)">
            <g id="en" transform="translate(1286.000000, 303.000000)">
                <g id="Group-4" fill="#194767">
                    <g id="Group-9-Copy">
                        <circle id="Oval-2" cx="29" cy="29" r="29"></circle>
                    </g>
                </g>
                <path d="M21.454,36.308 C18.598,36.308 16.582,34.908 15.826,32.556 C15.546,31.688 15.35,30.652 15.35,29.252 C15.35,27.852 15.518,26.788 15.798,25.92 C16.554,23.568 18.626,22.196 21.314,22.196 C24.086,22.196 26.102,23.624 26.858,25.92 C27.166,26.872 27.306,27.796 27.306,29.98 C27.306,30.148 27.194,30.26 26.998,30.26 L18.682,30.26 C18.57,30.26 18.514,30.316 18.514,30.428 C18.514,30.82 18.598,31.156 18.71,31.464 C19.158,32.78 20.222,33.508 21.734,33.508 C23.246,33.508 24.226,32.948 24.898,32.22 C25.038,32.08 25.178,32.052 25.318,32.164 L26.97,33.62 C27.11,33.732 27.11,33.872 26.998,34.012 C25.85,35.356 23.946,36.308 21.454,36.308 Z M24.142,27.74 C24.142,27.264 24.086,26.928 23.974,26.592 C23.61,25.5 22.602,24.856 21.342,24.856 C20.054,24.856 19.046,25.5 18.682,26.592 C18.57,26.928 18.514,27.264 18.514,27.74 C18.514,27.852 18.57,27.908 18.682,27.908 L23.974,27.908 C24.086,27.908 24.142,27.852 24.142,27.74 Z M41.782,36 C41.95,36 42.062,35.888 42.062,35.72 L42.062,27.208 C42.062,24.324 40.27,22.196 37.386,22.196 C35.594,22.196 34.418,22.924 33.83,23.764 L33.802,23.764 L33.802,22.784 C33.802,22.616 33.69,22.504 33.522,22.504 L30.946,22.504 C30.778,22.504 30.666,22.616 30.666,22.784 L30.666,35.72 C30.666,35.888 30.778,36 30.946,36 L33.522,36 C33.69,36 33.802,35.888 33.802,35.72 L33.802,27.936 C33.802,26.2 34.754,24.996 36.378,24.996 C38.058,24.996 38.926,26.2 38.926,27.936 L38.926,35.72 C38.926,35.888 39.038,36 39.206,36 L41.782,36 Z" fill="#FFFFFF"></path>
            </g>
        </g>
    </g>
</svg>