<?xml version="1.0" encoding="UTF-8"?>
<svg width="22px" height="18px" viewBox="0 0 22 18" version="1.1" xmlns="http://www.w3.org/2000/svg" xmlns:xlink="http://www.w3.org/1999/xlink">
    <!-- Generator: Sketch 47.1 (45422) - http://www.bohemiancoding.com/sketch -->
    <title>Combined Shape</title>
    <desc>Created with Sketch.</desc>
    <defs>
        <path d="M703.000036,195.982651 C703.000199,195.992522 703.000215,196.002389 703.000086,196.01225 L703.000086,208 C703.000086,209.652285 701.652371,211 700.000086,211 L684.000086,211 C682.347801,211 681.000086,209.652285 681.000086,208 L681.000086,196.01225 C680.999957,196.002389 680.999973,195.992522 681.000135,195.982651 C681.009529,194.338292 682.353588,193 684.000086,193 L700.000086,193 C701.646584,193 702.990642,194.338292 703.000036,195.982651 Z M700.893508,195.553949 C700.728128,195.226923 700.388047,195 700.000086,195 L684.000086,195 C683.612125,195 683.272043,195.226923 683.106663,195.553949 L692.000086,201.779344 L700.893508,195.553949 Z M701.000086,197.920656 L692.573548,203.819232 C692.229228,204.060256 691.770944,204.060256 691.426624,203.819232 L683.000086,197.920656 L683.000086,208 C683.000086,208.547715 683.452371,209 684.000086,209 L700.000086,209 C700.547801,209 701.000086,208.547715 701.000086,208 L701.000086,197.920656 Z" id="path-1"></path>
    </defs>
    <g id="Page-1" stroke="none" stroke-width="1" fill="none" fill-rule="evenodd">
        <g id="Artboard" transform="translate(-681.000000, -193.000000)">
            <mask id="mask-2" fill="white">
                <use xlink:href="#path-1"></use>
            </mask>
            <use id="Combined-Shape" fill="#CFCFCF" fill-rule="nonzero" xlink:href="#path-1"></use>
        </g>
    </g>
</svg>