<?xml version="1.0" encoding="UTF-8"?>
<svg width="19px" height="19px" viewBox="0 0 19 19" version="1.1" xmlns="http://www.w3.org/2000/svg" xmlns:xlink="http://www.w3.org/1999/xlink">
    <!-- Generator: Sketch 47.1 (45422) - http://www.bohemiancoding.com/sketch -->
    <title>phone_icon</title>
    <desc>Created with Sketch.</desc>
    <defs></defs>
    <g id="Page-1" stroke="none" stroke-width="1" fill="none" fill-rule="evenodd">
        <g id="Desktop-HD" transform="translate(-646.000000, -879.000000)" fill="#CFCFCF">
            <g id="phone_icon" transform="translate(646.000000, 879.000000)">
                <g id="path-1">
                    <path d="M16.5364342,13.3950784 C16.5466488,12.9735882 16.2538797,12.6280525 15.8629179,12.5728648 C15.0436711,12.4648145 14.2392773,12.2644317 13.4632943,11.9748698 C13.1739896,11.8661205 12.8478502,11.9356764 12.6312271,12.1498713 L11.6258104,13.1552879 C11.3738126,13.4072857 10.9844991,13.4598426 10.6747011,13.2836866 C8.56885391,12.0862688 6.82524381,10.3426587 5.62782606,8.23681156 C5.45167002,7.92701352 5.50422688,7.5377 5.75622467,7.28570221 L6.7585178,6.28342661 C6.97583627,6.06366242 7.04539207,5.73752298 6.93597389,5.44643224 C6.64708094,4.67223527 6.44669815,3.86784149 6.33964218,3.0558734 C6.28402793,2.6624022 5.94533837,2.37112917 5.54018421,2.37507841 L3.16592974,2.37507806 C2.94370663,2.37528733 2.73180331,2.46888648 2.58198286,2.63301139 C2.43216241,2.79713631 2.35822122,3.01667336 2.37700779,3.22564542 C2.62373601,5.54903258 3.41428665,7.78162999 4.68836179,9.74840724 C5.84150422,11.5631175 7.38006176,13.1016751 9.20093097,14.2587712 C11.1529999,15.5246809 13.3747924,16.315052 15.6735241,16.5649584 C15.8955327,16.5850225 16.1157126,16.5105596 16.2799716,16.3598633 C16.4442306,16.209167 16.5373455,15.9962034 16.5364342,15.7700784 L16.5364342,13.3950784 Z M10.5062247,12.0357022 L11.457334,11.9073036 C11.2833588,11.8083786 11.1121856,11.7052285 10.9439477,11.5979868 L10.5062247,12.0357022 Z M18.119761,15.7668651 C18.1224754,16.4355999 17.8431305,17.0744906 17.3503535,17.5265796 C16.8575765,17.9786686 16.1970369,18.2020572 15.5167499,18.1404459 C12.957563,17.8623694 10.4992838,16.9878715 8.34559637,15.5911727 C6.33470119,14.3133662 4.6298131,12.6084781 3.3557543,10.6034239 C1.95021369,8.43376647 1.07551716,5.96353229 0.801313676,3.38049543 C0.741313114,2.71653132 0.963136686,2.05792018 1.41259804,1.56554543 C1.86205939,1.07317068 2.49776934,0.792373248 3.16518421,0.791745078 L5.5323929,0.791783418 C6.72448147,0.780050732 7.74055016,1.6538698 7.90838726,2.84156207 C8.00082338,3.54242055 8.17224912,4.23057245 8.41872562,4.89110521 C8.74497343,5.75901931 8.53630602,6.73743765 7.88122708,7.39987128 L7.31352879,7.96756956 C8.24441477,9.4279165 9.4836003,10.6671015 10.9439477,11.5979868 L11.5147824,11.027162 C12.174075,10.3752066 13.1524933,10.1665392 14.0186214,10.4921181 C14.6809402,10.7392635 15.3690921,10.9106892 16.077024,11.0040907 C17.267566,11.1720471 18.1441919,12.2029774 18.1197675,13.4039267 L18.119761,15.7668651 Z" fill-rule="nonzero"></path>
                </g>
            </g>
        </g>
    </g>
</svg>