<?xml version="1.0" encoding="UTF-8"?>
<svg width="35px" height="35px" viewBox="0 0 35 35" version="1.1" xmlns="http://www.w3.org/2000/svg" xmlns:xlink="http://www.w3.org/1999/xlink">
    <!-- Generator: Sketch 46.2 (44496) - http://www.bohemiancoding.com/sketch -->
    <title>plus_icon</title>
    <desc>Created with Sketch.</desc>
    <defs></defs>
    <g id="Symbols" stroke="none" stroke-width="1" fill="none" fill-rule="evenodd">
        <g id="Artboard" transform="translate(-1092.000000, -283.000000)">
            <g id="plus_icon" transform="translate(1092.000000, 283.000000)">
                <g id="Group">
                    <circle id="Oval-10" fill="#FFFFFF" cx="17.5" cy="17.5" r="17.5"></circle>
                    <path d="M16.4801905,18.6160952 C16.4801905,18.5119042 16.4280958,18.4598095 16.3239048,18.4598095 L12.2604762,18.4598095 C12.0868245,18.4598095 12,18.372985 12,18.1993333 L12,16.7927619 C12,16.6191102 12.0868245,16.5322857 12.2604762,16.5322857 L16.3239048,16.5322857 C16.4280958,16.5322857 16.4801905,16.480191 16.4801905,16.376 L16.4801905,12.2604762 C16.4801905,12.0868245 16.567015,12 16.7406667,12 L18.1993333,12 C18.372985,12 18.4598095,12.0868245 18.4598095,12.2604762 L18.4598095,16.376 C18.4598095,16.480191 18.5119042,16.5322857 18.6160952,16.5322857 L22.6795238,16.5322857 C22.8531755,16.5322857 22.94,16.6191102 22.94,16.7927619 L22.94,18.1993333 C22.94,18.372985 22.8531755,18.4598095 22.6795238,18.4598095 L18.6160952,18.4598095 C18.5119042,18.4598095 18.4598095,18.5119042 18.4598095,18.6160952 L18.4598095,22.731619 C18.4598095,22.9052707 18.372985,22.9920952 18.1993333,22.9920952 L16.7406667,22.9920952 C16.567015,22.9920952 16.4801905,22.9052707 16.4801905,22.731619 L16.4801905,18.6160952 Z" id="+" fill="#194767"></path>
                </g>
            </g>
        </g>
    </g>
</svg>