<?xml version="1.0" encoding="UTF-8"?>
<svg width="56px" height="56px" viewBox="0 0 56 56" version="1.1" xmlns="http://www.w3.org/2000/svg" xmlns:xlink="http://www.w3.org/1999/xlink">
    <!-- Generator: Sketch 47.1 (45422) - http://www.bohemiancoding.com/sketch -->
    <title>sb</title>
    <desc>Created with Sketch.</desc>
    <defs></defs>
    <g id="Symbols" stroke="none" stroke-width="1" fill="none" fill-rule="evenodd">
        <g id="Artboard" transform="translate(-1311.000000, -236.000000)">
            <g id="sb" transform="translate(1311.000000, 236.000000)">
                <circle id="Oval-2" fill="#4A4A4A" cx="28" cy="28" r="28"></circle>
                <g id="Group-3" transform="translate(11.000000, 14.000000)">
                    <path d="M15.1972939,30.974628 L27.3721184,22.5 L30,22.5 C31.3807119,22.5 32.5,21.3807119 32.5,20 L32.5,4 C32.5,2.61928813 31.3807119,1.5 30,1.5 L4,1.5 C2.61928813,1.5 1.5,2.61928813 1.5,4 L1.5,20 C1.5,21.3807119 2.61928813,22.5 4,22.5 L15.1972939,22.5 L15.1972939,30.974628 Z" id="Combined-Shape" stroke="#FFFFFF" stroke-width="3"></path>
                    <g id="Group-2" transform="translate(6.000000, 10.000000)" fill="#FFFFFF">
                        <circle id="Oval" cx="2" cy="2" r="2"></circle>
                        <circle id="Oval-Copy" cx="11" cy="2" r="2"></circle>
                        <circle id="Oval-Copy-2" cx="20" cy="2" r="2"></circle>
                    </g>
                </g>
            </g>
        </g>
    </g>
</svg>