<?xml version="1.0" encoding="UTF-8"?>
<svg width="56px" height="56px" viewBox="0 0 56 56" version="1.1" xmlns="http://www.w3.org/2000/svg" xmlns:xlink="http://www.w3.org/1999/xlink">
    <!-- Generator: Sketch 47.1 (45422) - http://www.bohemiancoding.com/sketch -->
    <title>search-l</title>
    <desc>Created with Sketch.</desc>
    <defs></defs>
    <g id="Symbols" stroke="none" stroke-width="1" fill="none" fill-rule="evenodd">
        <g id="Artboard" transform="translate(-1213.000000, -304.000000)">
            <g id="search-l" transform="translate(1213.000000, 304.000000)">
                <g>
                    <circle id="Oval-2" fill="#A6C2C9" cx="28" cy="28" r="28"></circle>
                    <g id="Group-10" transform="translate(13.000000, 14.000000)"></g>
                </g>
                <g id="magnifying-glass" transform="translate(16.000000, 16.000000)" fill="#FFFFFF">
                    <path d="M10.8393273,0.0309695066 C4.86221253,0.0309695066 0,4.89318204 0,10.8702968 C0,16.8474116 4.86221253,21.7096241 10.8393273,21.7096241 C12.6665282,21.7096241 14.4627596,21.276051 15.9802654,20.4398743 C16.1018194,20.5861533 16.23659,20.7209239 16.382869,20.8424779 L19.4798196,23.9394286 C20.2590051,24.8161918 21.4598473,25.1890216 22.5985809,24.9077217 C23.7373144,24.6264218 24.6264218,23.7373144 24.9077217,22.5985809 C25.1890216,21.4598473 24.8161918,20.2590051 23.9394286,19.4798196 L20.8424779,16.382869 C20.6916184,16.2319553 20.5255655,16.0970373 20.3469658,15.9802654 C21.1831425,14.4627596 21.7096241,12.6974977 21.7096241,10.8393273 C21.7096241,4.86221253 16.8474116,0 10.8702968,0 L10.8393273,0.0309695066 Z M11.0159681,3 C15.4550898,3 19,6.54491018 19,10.9840319 C19,13.0918164 18.2335329,15.0399202 16.8922156,16.4770459 C16.8602794,16.508982 16.8283433,16.5409182 16.7964072,16.5728543 C16.6455626,16.6982023 16.5065855,16.8371793 16.3812375,16.988024 C14.9760479,18.2654691 13.0598802,19 10.9840319,19 C6.54491018,19 3,15.4550898 3,11.0159681 C3,6.57684631 6.54491018,3.03193613 10.9840319,3.03193613 L11.0159681,3 Z" id="Shape" fill-rule="nonzero"></path>
                </g>
            </g>
        </g>
    </g>
</svg>