<?xml version="1.0" encoding="UTF-8"?>
<svg width="40px" height="40px" viewBox="0 0 40 40" version="1.1" xmlns="http://www.w3.org/2000/svg" xmlns:xlink="http://www.w3.org/1999/xlink">
    <!-- Generator: Sketch 46.2 (44496) - http://www.bohemiancoding.com/sketch -->
    <title>LinkedIN_white</title>
    <desc>Created with Sketch.</desc>
    <defs></defs>
    <g id="Symbols" stroke="none" stroke-width="1" fill="none" fill-rule="evenodd">
        <g id="Artboard" transform="translate(-423.000000, -162.000000)" fill="#FFFFFF">
            <g id="LinkedIN_white" transform="translate(423.000000, 162.000000)">
                <g id="Combined-Shape">
                    <path d="M0,20 C0,8.95430446 8.95430446,0 20,0 C31.0456955,0 40,8.95430446 40,20 C40,31.0456955 31.0456955,40 20,40 C8.95430446,40 0,31.0456955 0,20 Z M14.3589744,16.4102564 L10.2564103,16.4102564 L10.2564103,29.7435897 L14.3589744,29.7435897 L14.3589744,16.4102564 Z M15.3846154,12.3069832 C15.3550294,11.1429826 14.3947142,10.2564103 12.8353058,10.2564103 C11.2758974,10.2564103 10.2564103,11.1429826 10.2564103,12.3069832 C10.2564103,13.4468732 11.2457652,14.3589744 12.7761339,14.3589744 L12.8052647,14.3589744 C14.3947142,14.3589744 15.3846154,13.4468732 15.3846154,12.3069832 Z M29.7435897,22.2739108 C29.7435897,18.2725533 27.5889781,16.4102564 24.7149705,16.4102564 C22.3961223,16.4102564 21.3579349,17.6746712 20.7782665,18.561681 L20.7782665,16.7165035 L16.4102564,16.7165035 C16.467822,17.9388979 16.4102564,29.7435897 16.4102564,29.7435897 L20.7782665,29.7435897 L20.7782665,22.46819 C20.7782665,22.0788533 20.8066132,21.6904677 20.9220933,21.4117155 C21.2377449,20.6339067 21.956443,19.8286031 23.1630535,19.8286031 C24.7441022,19.8286031 25.376103,21.0231569 25.376103,22.7737454 L25.376103,29.7432439 L29.7434153,29.7432439 L29.7435897,22.2739108 Z"></path>
                </g>
            </g>
        </g>
    </g>
</svg>