<?xml version="1.0" encoding="UTF-8"?>
<svg width="112px" height="112px" viewBox="0 0 112 112" version="1.1" xmlns="http://www.w3.org/2000/svg" xmlns:xlink="http://www.w3.org/1999/xlink">
    <!-- Generator: Sketch 46.2 (44496) - http://www.bohemiancoding.com/sketch -->
    <title>Linkedin_negative</title>
    <desc>Created with Sketch.</desc>
    <defs></defs>
    <g id="Symbols" stroke="none" stroke-width="1" fill="none" fill-rule="evenodd">
        <g id="Artboard" transform="translate(-485.000000, -243.000000)">
            <g id="Linkedin_negative" transform="translate(485.000000, 243.000000)">
                <rect id="Rectangle" fill="#FFFFFF" x="0" y="0" width="112" height="112"></rect>
                <g id="Group-2" transform="translate(26.000000, 28.000000)" fill="#0077B5">
                    <polygon id="Combined-Shape" points="14.2212533 18.9675242 1.64373963 18.9675242 1.64373963 56.7577319 14.2212533 56.7577319"></polygon>
                    <path d="M15.0496401,7.27748844 C14.9680071,3.57218251 12.3183248,0.75 8.01563656,0.75 C3.71294835,0.75 0.9,3.57218251 0.9,7.27748844 C0.9,10.9060446 3.62980826,13.8094916 7.85237051,13.8094916 L7.93274764,13.8094916 C12.3183248,13.8094916 15.0496401,10.9060446 15.0496401,7.27748844 Z" id="Combined-Shape"></path>
                    <path d="M59.5805792,35.0899817 C59.5805792,23.4824644 53.375716,18.0801369 45.0991323,18.0801369 C38.4212999,18.0801369 35.4315219,21.7480713 33.7621893,24.3211934 L33.7621893,18.9685275 L21.1831686,18.9685275 C21.3489464,22.5145652 21.1831686,56.7587352 21.1831686,56.7587352 L33.7621893,56.7587352 L33.7621893,35.6535655 C33.7621893,34.5241407 33.8438224,33.3974748 34.1763827,32.5888438 C35.0853978,30.3325024 37.1551089,27.9964014 40.6299127,27.9964014 C45.1830259,27.9964014 47.0030655,31.4616763 47.0030655,36.5399495 L47.0030655,56.7577319 L59.5800768,56.7577319 L59.5805792,35.0899817 Z" id="Combined-Shape"></path>
                </g>
            </g>
        </g>
    </g>
</svg>