<?xml version="1.0" encoding="UTF-8"?>
<svg width="40px" height="40px" viewBox="0 0 40 40" version="1.1" xmlns="http://www.w3.org/2000/svg" xmlns:xlink="http://www.w3.org/1999/xlink">
    <!-- Generator: Sketch 46.2 (44496) - http://www.bohemiancoding.com/sketch -->
    <title>xing_white</title>
    <desc>Created with Sketch.</desc>
    <defs></defs>
    <g id="Symbols" stroke="none" stroke-width="1" fill="none" fill-rule="evenodd">
        <g id="Artboard" transform="translate(-369.000000, -162.000000)" fill="#FFFFFF">
            <g id="xing_white" transform="translate(369.000000, 162.000000)">
                <g id="Combined-Shape">
                    <path d="M20.0179687,40 C8.99875,40 0,31.0007812 0,20.0179687 C0,8.99875 8.99875,0 20.0179687,0 C31.0007812,0 40,8.99875 40,20.0179687 C40,31.0007812 31.0007812,40 20.0179687,40 Z M9.23942743,10.4788471 L12.9931598,16.7462403 L8,25.4924805 L14.2326654,25.4924805 L19.2252005,16.7462403 L15.4714681,10.4788471 L9.23942743,10.4788471 Z M17.985695,22.9782615 L24.2177357,33 L30.485695,33 L24.2177357,22.9782615 L33,8 L26.7319626,8 L17.985695,22.9782615 Z"></path>
                </g>
            </g>
        </g>
    </g>
</svg>