<?xml version="1.0" standalone="no"?>
<!DOCTYPE svg PUBLIC "-//W3C//DTD SVG 20010904//EN"
 "http://www.w3.org/TR/2001/REC-SVG-20010904/DTD/svg10.dtd">
<svg version="1.0" xmlns="http://www.w3.org/2000/svg"
 width="260.000000pt" height="260.000000pt" viewBox="0 0 260.000000 260.000000"
 preserveAspectRatio="xMidYMid meet">
<metadata>
Created by potrace 1.11, written by Peter Selinger 2001-2013
</metadata>
<g transform="translate(0.000000,260.000000) scale(0.100000,-0.100000)"
fill="#000000" stroke="none">
<path d="M1098 2320 c-49 -10 -117 -28 -153 -40 -55 -18 -63 -24 -56 -38 5 -9
27 -47 48 -83 l38 -66 39 13 c115 40 335 56 440 32 22 -5 52 -12 65 -14 50
-10 174 -63 244 -105 80 -49 216 -178 266 -253 57 -87 104 -192 130 -291 l10
-40 95 0 95 0 -6 30 c-55 322 -279 615 -584 765 -41 20 -84 39 -95 43 -180 54
-202 58 -359 61 -96 3 -153 -1 -217 -14z"/>
<path d="M625 2104 c-172 -147 -270 -290 -335 -487 -52 -155 -60 -375 -21
-548 48 -213 186 -431 362 -572 l46 -37 44 84 43 83 -57 52 c-113 104 -195
237 -244 398 -23 76 -26 106 -27 223 0 100 4 153 18 205 39 150 121 289 235
401 34 32 61 62 61 66 0 7 -89 158 -93 158 -1 0 -15 -12 -32 -26z"/>
<path d="M2165 1166 c-2 -6 -9 -38 -15 -70 -35 -175 -162 -366 -322 -484 -104
-77 -254 -140 -376 -159 -92 -14 -262 -6 -347 17 -44 12 -89 24 -100 27 -16 3
-27 -10 -60 -73 -22 -43 -41 -81 -43 -84 -4 -10 194 -67 268 -78 36 -6 117 -9
180 -7 369 9 714 221 890 547 60 112 112 275 115 363 0 14 -186 15 -190 1z"/>
</g>
</svg>
